<?xml version="1.0" standalone="no"?><svg xmlns="http://www.w3.org/2000/svg" viewBox="0 0 1440 320"><path fill="#F46740" fill-opacity="0.1" d="M0,0L15,32C30,64,60,128,90,176C120,224,150,256,180,245.3C210,235,240,181,270,181.3C300,181,330,235,360,213.3C390,192,420,96,450,80C480,64,510,128,540,181.3C570,235,600,277,630,282.7C660,288,690,256,720,245.3C750,235,780,245,810,245.3C840,245,870,235,900,202.7C930,171,960,117,990,90.7C1020,64,1050,64,1080,74.7C1110,85,1140,107,1170,106.7C1200,107,1230,85,1260,74.7C1290,64,1320,64,1350,74.7C1380,85,1410,107,1425,117.3L1440,128L1440,320L1425,320C1410,320,1380,320,1350,320C1320,320,1290,320,1260,320C1230,320,1200,320,1170,320C1140,320,1110,320,1080,320C1050,320,1020,320,990,320C960,320,930,320,900,320C870,320,840,320,810,320C780,320,750,320,720,320C690,320,660,320,630,320C600,320,570,320,540,320C510,320,480,320,450,320C420,320,390,320,360,320C330,320,300,320,270,320C240,320,210,320,180,320C150,320,120,320,90,320C60,320,30,320,15,320L0,320Z"></path></svg>